<?xml version="1.0" encoding="UTF-8"?>

<!--
  - Copyright (c) 2021-2024.
  - Project1 created by $user
  - This program is free software: you can redistribute it and/or modify it
  - under the terms of the GNU General Public License as published by the
  - Free Software Foundation, either version 3 of the License, or
  - (at your option) any later version.
  -
  - This program is distributed in the hope that it will be useful, but
  - WITHOUT ANY WARRANTY; without even the implied warranty of MERCHANTABILITY
  - or FITNESS FOR A PARTICULAR PURPOSE.  See the GNU General Public License
  - for more details.
  -
  - You should have received a copy of the GNU General Public License along
  - with this program. If not, see <http://www.gnu.org/licenses/>.
  -->

<svg version="1.1" xmlns="http://www.w3.org/2000/svg" viewBox="0 0 380 460" fill="#505050">
  <path
     d="M 346,8 H 108 C 90,8 75,23 75,41 v 316 c 0,18 15,33 33,33 h 238 c 18,0 33,-15 33,-33 V 41 C 379,23 364,8 346,8 Z m -8,344 H 116 c -2,0 -3,-1 -3,-3 V 49 c 0,-2 1,-3 3,-3 h 222 c 2,0 3,1 3,3 v 300 h 10e-4 c 0,2 -1,3 -3,3 z"/>
  <path
     d="m 290,389 v 26 h 10e-4 c 0,2 -1,3 -3,3 H 49 c -2,0 -3,-1 -3,-3 V 99 c 0,-2 1,-3 3,-3 h 27 v 0 l -5e-4,-38 H 41 C 23,58 8,73 8,91 v 332 c 10e-4,18 15,33 33,33 h 254 c 18,0 33,-15 33,-33 v -34"/>
</svg>
